<svg xmlns="http://www.w3.org/2000/svg" xmlns:xlink="http://www.w3.org/1999/xlink" width="186" height="190" viewBox="0 0 186 190" fill="none">
<rect x="0" y="0" width="0" height="0" fill="rgba(249, 249, 249, 1)" />
<path d="M25 29L161 29L161 163L25 163L25 29Z"   fill="#008EFA" >
</path>
<g filter="url(#filter_5YLRMJ2c1OnE7PQ5Awklh)">
<path d="M182 11.03L182 174.97C182 175.118 181.99 175.263 181.99 175.41C181.99 175.557 181.967 175.713 181.95 175.86C181.933 176.007 181.905 176.144 181.88 176.29C181.855 176.436 181.832 176.585 181.8 176.73C181.768 176.874 181.73 177.017 181.69 177.16C181.65 177.303 181.608 177.449 181.56 177.59C181.513 177.731 181.465 177.871 181.41 178.01C181.355 178.149 181.302 178.284 181.24 178.42C181.178 178.556 181.109 178.687 181.04 178.82C180.971 178.953 180.896 179.09 180.82 179.22C180.744 179.35 180.663 179.474 180.58 179.6C180.497 179.726 180.409 179.848 180.32 179.97C180.231 180.092 180.146 180.222 180.05 180.34C179.954 180.458 179.852 180.566 179.75 180.68C179.648 180.794 179.538 180.911 179.43 181.02C179.322 181.129 179.213 181.236 179.1 181.34C178.987 181.444 178.879 181.541 178.76 181.64C178.641 181.739 178.514 181.836 178.39 181.93C178.266 182.024 178.139 182.112 178.01 182.2C177.881 182.288 177.753 182.378 177.62 182.46C177.487 182.542 177.347 182.624 177.21 182.7C177.073 182.776 176.931 182.85 176.79 182.92C176.649 182.99 176.515 183.056 176.37 183.12C176.225 183.183 176.078 183.243 175.93 183.3C175.782 183.357 175.631 183.41 175.48 183.46C175.329 183.51 175.173 183.556 175.02 183.6C174.867 183.644 174.716 183.684 174.56 183.72C174.405 183.756 174.247 183.79 174.09 183.82C173.933 183.849 173.768 183.867 173.61 183.89C173.452 183.912 173.299 183.935 173.14 183.95C172.981 183.965 172.82 183.99 172.66 183.99C172.5 183.99 172.34 184 172.18 184L13.82 184C13.6595 184 13.5005 183.99 13.34 183.99C13.1796 183.99 13.0198 183.975 12.86 183.96C12.7001 183.945 12.5388 183.922 12.38 183.9C12.2212 183.878 12.0674 183.859 11.91 183.83C11.7524 183.801 11.5957 183.766 11.44 183.73C11.2843 183.694 11.1237 183.653 10.97 183.61C10.8163 183.567 10.6613 183.52 10.51 183.47C10.3589 183.42 10.2085 183.366 10.06 183.31C9.91167 183.253 9.76525 183.193 9.62 183.13C9.47475 183.067 9.34154 183 9.2 182.93C9.05832 182.86 8.90783 182.796 8.77 182.72C8.63217 182.644 8.5035 182.562 8.37 182.48C8.23634 182.398 8.09903 182.308 7.97 182.22C7.84097 182.132 7.71423 182.044 7.59 181.95C7.46593 181.856 7.34913 181.759 7.23 181.66C7.11103 181.561 6.99373 181.465 6.88 181.36C6.76643 181.255 6.64784 181.149 6.54 181.04C6.43199 180.93 6.33198 180.814 6.23 180.7C6.12802 180.586 6.02564 180.469 5.93 180.35C5.8342 180.231 5.74931 180.113 5.66 179.99C5.57069 179.867 5.48266 179.737 5.4 179.61C5.31733 179.483 5.23571 179.36 5.16 179.23C5.08413 179.099 5.01876 178.964 4.95 178.83C4.88124 178.696 4.81165 178.566 4.75 178.43C4.6885 178.294 4.63423 178.149 4.58 178.01C4.52576 177.871 4.47682 177.731 4.43 177.59C4.38334 177.448 4.32925 177.313 4.29 177.17C4.25091 177.027 4.22152 176.875 4.19 176.73C4.15863 176.585 4.13379 176.446 4.11 176.3C4.08636 176.154 4.05592 176.007 4.04 175.86C4.02409 175.713 4.01 175.568 4.01 175.42C4.01 175.272 4 175.118 4 174.97L4 11.03C4 10.8824 4.01 10.7273 4.01 10.58C4.01 10.4328 4.03316 10.2867 4.05 10.14C4.06684 9.99326 4.09559 9.85573 4.12 9.71C4.14457 9.56426 4.16771 9.41446 4.2 9.27C4.2323 9.12539 4.27029 8.9829 4.31 8.84C4.34986 8.69725 4.39272 8.55104 4.44 8.41C4.48744 8.26908 4.5353 8.12863 4.59 7.99C4.6447 7.85137 4.69804 7.71607 4.76 7.58C4.82196 7.44393 4.89093 7.31309 4.96 7.18C5.02907 7.04691 5.10398 6.90982 5.18 6.78C5.25602 6.65005 5.33718 6.52626 5.42 6.4C5.50282 6.27374 5.59054 6.15242 5.68 6.03C5.76931 5.90743 5.8542 5.77831 5.95 5.66C6.04564 5.54169 6.14818 5.43389 6.25 5.32C6.35198 5.20611 6.4623 5.08918 6.57 4.98C6.67784 4.8708 6.78659 4.76425 6.9 4.66C7.01341 4.55575 7.12133 4.45907 7.24 4.36C7.35883 4.26093 7.48607 4.16363 7.61 4.07C7.73377 3.97637 7.8613 3.88797 7.99 3.8C8.1187 3.71202 8.2468 3.62211 8.38 3.54C8.51304 3.45787 8.65263 3.37606 8.79 3.3C8.92737 3.22393 9.06878 3.14984 9.21 3.08C9.35122 3.01017 9.48537 2.94344 9.63 2.88C9.77479 2.81657 9.92213 2.75689 10.07 2.7C10.2179 2.64311 10.3692 2.59021 10.52 2.54C10.6707 2.48978 10.8267 2.4434 10.98 2.4C11.1331 2.35659 11.2847 2.31651 11.44 2.28C11.5954 2.2435 11.753 2.20952 11.91 2.18C12.0671 2.15048 12.2316 2.13245 12.39 2.11C12.5484 2.08755 12.7005 2.06534 12.86 2.05C13.0195 2.03464 13.1799 2.01 13.34 2.01C13.5001 2.01 13.6598 2 13.82 2L172.18 2C177.599 2 182 6.04306 182 11.03ZM27 30.5L27 157.5L94 125.5L159.5 157.5L159.5 30.5L27 30.5Z"   fill="#008EFA" >
</path>
</g>
<g filter="url(#filter_0_21)">
<path     fill="#008EFA"  d="M19.16 30.5L19.16 165L93.5 131.5L166.84 165L166.84 30.5L19.16 30.5Z">
</path>
<path fill-rule="evenodd"  fill="rgba(255, 255, 255, 1)"  d="M93.5 131.5L164.84 164.086L166.84 165L166.84 30.5L19.16 30.5L19.16 165L21.16 164.099L93.5 131.5ZM21.16 161.905L93.5056 129.304L164.84 161.888L164.84 32.5L21.16 32.5L21.16 161.905Z">
</path>
</g>
<g >
<g filter="url(#filter_0_12)">
<path     fill="#FFFFFF"  d="M44.4 75.832Q44.4 69.32 47.04 64.26Q49.68 59.2 54.476 56.428Q59.272 53.656 65.52 53.656Q77.576 53.656 82.592 61.444Q87.608 69.232 87.608 85.072Q87.608 99.504 82.02 108.524Q76.432 117.544 63.672 117.544Q59.712 117.544 55.796 116.84Q51.88 116.136 49.152 114.904L49.328 105.488Q52.144 106.456 55.576 107.116Q59.008 107.776 62.352 107.776Q67.984 107.776 71.284 103.904Q74.584 100.032 75.2 92.288Q69.568 96.248 61.912 96.248Q56.808 96.248 52.848 93.916Q48.888 91.584 46.644 86.964Q44.4 82.344 44.4 75.832ZM56.28 75.392Q56.28 81.288 58.744 84.456Q61.208 87.624 65.344 87.624Q69.568 87.624 71.988 84.456Q74.408 81.288 74.408 75.392Q74.408 69.672 71.944 66.46Q69.48 63.248 65.344 63.248Q61.208 63.248 58.744 66.46Q56.28 69.672 56.28 75.392ZM96.32 75.832Q96.32 69.32 98.96 64.26Q101.6 59.2 106.396 56.428Q111.192 53.656 117.44 53.656Q129.496 53.656 134.512 61.444Q139.528 69.232 139.528 85.072Q139.528 99.504 133.94 108.524Q128.352 117.544 115.592 117.544Q111.632 117.544 107.716 116.84Q103.8 116.136 101.072 114.904L101.248 105.488Q104.064 106.456 107.496 107.116Q110.928 107.776 114.272 107.776Q119.904 107.776 123.204 103.904Q126.504 100.032 127.12 92.288Q121.488 96.248 113.832 96.248Q108.728 96.248 104.768 93.916Q100.808 91.584 98.564 86.964Q96.32 82.344 96.32 75.832ZM108.2 75.392Q108.2 81.288 110.664 84.456Q113.128 87.624 117.264 87.624Q121.488 87.624 123.908 84.456Q126.328 81.288 126.328 75.392Q126.328 69.672 123.864 66.46Q121.4 63.248 117.264 63.248Q113.128 63.248 110.664 66.46Q108.2 69.672 108.2 75.392Z">
</path>
</g>
</g>
<defs>
<filter id="filter_5YLRMJ2c1OnE7PQ5Awklh" x="0" y="0" width="186" height="190" filterUnits="userSpaceOnUse" color-interpolation-filters="sRGB">
<feFlood flood-opacity="0" result="feFloodId_5YLRMJ2c1OnE7PQ5Awklh"/>
<feColorMatrix in="SourceAlpha" type="matrix" values="0 0 0 0 0 0 0 0 0 0 0 0 0 0 0 0 0 0 127 0" result="hardAlpha_5YLRMJ2c1OnE7PQ5Awklh"/>
<feOffset dx="0" dy="2"/>
<feGaussianBlur stdDeviation="2"/>
<feComposite in2="hardAlpha_5YLRMJ2c1OnE7PQ5Awklh" operator="out"/>
<feColorMatrix type="matrix" values="0 0 0 0 0 0 0 0 0 0 0 0 0 0 0 0 0 0 0.25 0"/>
<feBlend mode="normal" in2="feFloodId_5YLRMJ2c1OnE7PQ5Awklh" result="dropShadow_1_5YLRMJ2c1OnE7PQ5Awklh"/>
<feBlend mode="normal" in="SourceGraphic" in2="dropShadow_1_5YLRMJ2c1OnE7PQ5Awklh" result="shape_5YLRMJ2c1OnE7PQ5Awklh"/>
</filter>
<filter id="filter_0_21" x="15.160003662109375" y="28.5" width="155.67996215820312" height="142.5" filterUnits="userSpaceOnUse" color-interpolation-filters="sRGB">
<feFlood flood-opacity="0" result="feFloodId_0_21"/>
<feColorMatrix in="SourceAlpha" type="matrix" values="0 0 0 0 0 0 0 0 0 0 0 0 0 0 0 0 0 0 127 0" result="hardAlpha_0_21"/>
<feOffset dx="0" dy="2"/>
<feGaussianBlur stdDeviation="2"/>
<feComposite in2="hardAlpha_0_21" operator="out"/>
<feColorMatrix type="matrix" values="0 0 0 0 0 0 0 0 0 0 0 0 0 0 0 0 0 0 0.25 0"/>
<feBlend mode="normal" in2="feFloodId_0_21" result="dropShadow_1_0_21"/>
<feBlend mode="normal" in="SourceGraphic" in2="dropShadow_1_0_21" result="shape_0_21"/>
</filter>
<filter id="filter_0_12" x="39.399993896484375" y="50.656002044677734" width="105.12802124023438" height="73.88799667358398" filterUnits="userSpaceOnUse" color-interpolation-filters="sRGB">
<feFlood flood-opacity="0" result="feFloodId_0_12"/>
<feColorMatrix in="SourceAlpha" type="matrix" values="0 0 0 0 0 0 0 0 0 0 0 0 0 0 0 0 0 0 127 0" result="hardAlpha_0_12"/>
<feOffset dx="0" dy="2"/>
<feGaussianBlur stdDeviation="2.5"/>
<feComposite in2="hardAlpha_0_12" operator="out"/>
<feColorMatrix type="matrix" values="0 0 0 0 0 0 0 0 0 0 0 0 0 0 0 0 0 0 0.25 0"/>
<feBlend mode="normal" in2="feFloodId_0_12" result="dropShadow_1_0_12"/>
<feBlend mode="normal" in="SourceGraphic" in2="dropShadow_1_0_12" result="shape_0_12"/>
</filter>
</defs>
</svg>
